Simulation
nRows=27
nColumns=15
endheader
time  TH_x TH_y TH_z SC_y  SC_z  SC_x  AC_y  AC_z  AC_x  GH_y  GH_z  GH_yy  EL_x  PS_y
0.0  0.000000  0.000000  0.000000  -31.090473144018517  1.0546092306241026  -0.1946435893948154  50.61947306586581  7.645947084148  -6.346414251765258  19.651044489033687  4.106826478098219  -1.1237713897270298  22.933713338827378  0.000000
0.011899999999999999  0.000000  0.000000  0.000000  -31.180027672901172  1.1094926678719903  -0.1508066598532775  50.4759937964789  7.722904557994453  -6.450563029248408  17.373293805197125  4.1309935282779024  1.1723926791514945  22.841448566331668  0.000000
0.023799999999999998  0.000000  0.000000  0.000000  -31.194816873076174  1.2072120309195822  -0.1135921756776878  50.33707361406411  7.786539564959811  -6.526698986881801  15.075491303866706  4.131563328064054  3.5942194028744794  22.799365701429554  0.000000
0.035699999999999996  0.000000  0.000000  0.000000  -31.214489117350706  1.3059063083372562  -0.08780657597318325  50.22486728138284  7.834998712491112  -6.5790592486057164  12.852052629974882  4.158641982767639  5.98123513356444  22.76622542770598  0.000000
0.047599999999999996  0.000000  0.000000  0.000000  -31.244287025113444  1.3961016337110006  -0.0659424902653878  50.137470343313204  7.865420212832451  -6.6158794996743255  10.619042029889782  4.2170041569873575  8.39140447306333  22.746955685653063  0.000000
0.0595  0.000000  0.000000  0.000000  -31.28638078489407  1.477218745298095  -0.038546269132099284  50.07322338610133  7.868911232235936  -6.640062719927252  8.34678476672226  4.311439224923441  10.842089984837676  22.73732737885012  0.000000
0.07139999999999999  0.000000  0.000000  0.000000  -31.33828799838903  1.551250616148506  -0.0026329298427770044  50.02832630385157  7.843884038482252  -6.654531995474512  6.115688384460424  4.4431632041288385  13.239093185319252  22.738959442476027  0.000000
0.0833  0.000000  0.000000  0.000000  -31.39934384781431  1.6212688290559807  0.03481221591331275  49.99607360382163  7.795704893238434  -6.651248486952117  3.987565089642388  4.613729410861972  15.515585807444113  22.75131790364354  0.000000
0.09519999999999999  0.000000  0.000000  0.000000  -31.466723402481055  1.6867128798113837  0.06802953208365128  49.97202183173677  7.73269021205771  -6.630451069790111  2.0605151851262233  4.822649702870281  17.564009539857306  22.77708040780221  0.000000
0.10709999999999999  0.000000  0.000000  0.000000  -31.540120285983853  1.7472409446899277  0.09911243545909999  49.95406912292621  7.655775497033525  -6.594945295843969  0.37551636880976463  5.070798780295862  19.339985818088728  22.816624128477304  0.000000
0.119  0.000000  0.000000  0.000000  -31.616578952794093  1.8027176380801317  0.12916930534739393  49.942378613913355  7.567250220670447  -6.550909522514074  -1.0159222273861857  5.356732586245457  20.785660393870625  22.87040292720754  0.000000
0.1309  0.000000  0.000000  0.000000  -31.69552995801787  1.8526563245978245  0.15951321135509103  49.935651290112006  7.468562681811448  -6.502056922881115  -2.1189657435588947  5.679842708167837  21.90428451608568  22.93799233145075  0.000000
0.14279999999999998  0.000000  0.000000  0.000000  -31.77442150702345  1.8964918747260011  0.18995100446084096  49.93396408485707  7.362701823446342  -6.4533922337903284  -2.9377266894495544  6.038217912549191  22.696854808990413  23.018691051409363  0.000000
0.15469999999999998  0.000000  0.000000  0.000000  -31.852355369934635  1.9345072494316808  0.22000818050909987  49.93558044015154  7.252203750705389  -6.40687385850536  -3.5116572855565678  6.430443574151991  23.2027261107356  23.111781597896854  0.000000
0.1666  0.000000  0.000000  0.000000  -31.926602737113125  1.967457558359576  0.2489690185051909  49.94028834582932  7.139826692360878  -6.364987702909325  -3.875904353335535  6.85449993092425  23.455907974616068  23.2161422091649  0.000000
0.1785  0.000000  0.000000  0.000000  -31.99667972652495  1.9961762227849753  0.2769387273035892  49.94681328805819  7.027346100525159  -6.328172218741165  -4.082821908016935  7.309491864777094  23.509968235582132  23.33056466100026  0.000000
0.19039999999999999  0.000000  0.000000  0.000000  -32.060587560708015  2.021369852087591  0.30414337167691713  49.955139764984146  6.916516573848124  -6.297119952874074  -4.175289056432028  7.794309019666026  23.40788668640001  23.4533959220038  0.000000
0.20229999999999998  0.000000  0.000000  0.000000  -32.118563003256675  2.0437248460911768  0.33128686944696484  49.96472760963864  6.808410365090409  -6.271106999539369  -4.197437204057398  8.308678481254564  23.195560607187993  23.582881663880666  0.000000
0.21419999999999997  0.000000  0.000000  0.000000  -32.16952570883818  2.063747255876515  0.3590621590636902  49.9760376302521  6.704124849136462  -6.249785758964459  -4.180007370173218  8.852055801523893  22.90467858067288  23.71715695029247  0.000000
0.2261  0.000000  0.000000  0.000000  -32.21452870526171  2.081983259441932  0.3884576121096026  49.98888633549058  6.604302866350975  -6.23207761369799  -4.149263834578773  9.424256926668347  22.563682625159696  23.854505174101682  0.000000
0.238  0.000000  0.000000  0.000000  -32.25325122483763  2.098859116140655  0.42022233812000687  50.00396611384242  6.509668814403531  -6.2174433152977295  -4.120384457814153  10.024824802087295  22.189391998944313  23.993249887717536  0.000000
0.24989999999999998  0.000000  0.000000  0.000000  -32.28690974480604  2.1147868597510864  0.4551184506931478  50.02150401134457  6.420751430255124  -6.205244471169648  -4.105332122073484  10.65342311110377  21.7962195917082  24.131873239650627  0.000000
0.2618  0.000000  0.000000  0.000000  -32.315366798522646  2.129964778901298  0.493733447809179  50.04244696225392  6.338112135372852  -6.195345312260548  -4.109493128301519  11.30950756980599  21.391564239298525  24.268857779556445  0.000000
0.2737  0.000000  0.000000  0.000000  -32.34056206315636  2.1446397281017453  0.5367280743828128  50.06696981464688  6.2621176150694895  -6.187207110413563  -4.136200143889864  11.992602902425627  20.9815895599719  24.402835719293442  0.000000
0.28559999999999997  0.000000  0.000000  0.000000  -32.362842541604294  2.1590280070203285  0.5844932560989574  50.09556623811419  6.193130192459958  -6.180639430978554  -4.18434018911251  12.701876624599187  20.567492055348268  24.53251320428857  0.000000
0.2975  0.000000  0.000000  0.000000  -32.38418178326112  2.1734523173477402  0.6373954431290199  50.128217641115754  6.131389085593565  -6.175370454484891  -4.251700428643796  13.436425265192144  20.14996192900347  24.65671224760697  0.000000
0.30939999999999995  0.000000  0.000000  0.000000  -32.4050342106359  2.1880743642978366  0.6956366539102352  50.16511146984908  6.077158092931667  -6.171333873590332  -4.33405502749637  14.19507091074139  19.727315197099998  24.77430889269563  0.000000
